<?xml version="1.0" encoding="utf-8"?>
<!-- Generator: Adobe Illustrator 26.2.1, SVG Export Plug-In . SVG Version: 6.00 Build 0)  -->
<svg version="1.1" id="Layer_1" xmlns="http://www.w3.org/2000/svg" xmlns:xlink="http://www.w3.org/1999/xlink" x="0px" y="0px"
	 viewBox="0 0 1239.46 1097.01" style="enable-background:new 0 0 1239.46 1097.01;" xml:space="preserve">
<style type="text/css">
	.st0{fill:#58595B;}
	.st1{fill-rule:evenodd;clip-rule:evenodd;fill:#006DB8;}
	.st2{fill-rule:evenodd;clip-rule:evenodd;fill:#00AEEF;}
	.st3{fill-rule:evenodd;clip-rule:evenodd;fill:#58595B;}
	.st4{fill-rule:evenodd;clip-rule:evenodd;fill:#FF91A4;}
</style>
<g>
	<path class="st0" d="M0,1061.84l30.87-30.28c7.99,11.8,22.89,18.95,38.98,18.95c10.85,0,21.46-3.93,21.46-11.8
		c0-9.89-19.67-18.6-38.5-26.94c-24.32-10.49-45.18-26.46-45.18-55.43c0-33.26,31.59-56.98,68.06-56.98
		c29.32,0,52.21,13.83,59.72,32.78l-29.44,28.37c-5.72-10.13-20.5-14.54-29.68-14.54c-10.49,0-18,5.36-18,11.92
		c0,8.82,13.59,11.68,34.33,20.38c30.04,12.64,49.95,30.99,49.95,59.36c0,36.6-34.09,59.36-72.59,59.36
		C38.38,1097.01,9.66,1083.06,0,1061.84z"/>
	<path class="st0" d="M216.35,949.67v26.82h61.03v42.56h-61.03v27.54h74.14v47.8H165.93V902.23H290.5v47.44H216.35z"/>
	<path class="st0" d="M442,1071.98h-71.76l-9.77,22.41h-55.79l89.28-194.54h24.2l89.4,194.54h-55.91L442,1071.98z M425.79,1034.67
		l-19.67-45.54l-19.79,45.54H425.79z"/>
	<path class="st0" d="M591.24,1061.84l30.87-30.28c7.99,11.8,22.89,18.95,38.98,18.95c10.85,0,21.46-3.93,21.46-11.8
		c0-9.89-19.67-18.6-38.5-26.94c-24.32-10.49-45.18-26.46-45.18-55.43c0-33.26,31.59-56.98,68.06-56.98
		c29.32,0,52.21,13.83,59.72,32.78l-29.44,28.37c-5.72-10.13-20.5-14.54-29.68-14.54c-10.49,0-18,5.36-18,11.92
		c0,8.82,13.59,11.68,34.33,20.38c30.04,12.64,49.95,30.99,49.95,59.36c0,36.6-34.09,59.36-72.59,59.36
		C629.62,1097.01,600.9,1083.06,591.24,1061.84z"/>
	<path class="st0" d="M870.77,1071.98h-71.76l-9.77,22.41h-55.79l89.28-194.54h24.2l89.4,194.54h-55.91L870.77,1071.98z
		 M854.56,1034.67l-19.67-45.54l-19.79,45.54H854.56z"/>
	<path class="st0" d="M1093.56,902.23l-88.57,194.18h-23.13l-88.21-194.18h55.19l44.34,104.06l44.46-104.06H1093.56z"/>
	<path class="st0" d="M1163.17,949.67v26.82h61.03v42.56h-61.03v27.54h74.14v47.8h-124.57V902.23h124.57v47.44H1163.17z"/>
</g>
<g>
	<path class="st1" d="M851.72,788.28c87.37-55.47,155.04-142.46,183.83-249.91c60.97-227.54-74.89-462.85-302.43-523.82
		c-9.21-2.47-18.43-4.61-27.65-6.43c-10.52,17.66-19.89,35.97-28.41,54.75c1.06-19.9,4.04-39.27,8.96-58.13
		c-8.12-1.22-16.23-2.2-24.32-2.95c-10.92,69.75-15.22,128.82-2.25,188.91c2.26,0.72,4.54,1.39,6.86,2.01
		c68.54,18.36,139-11.97,174.37-69.64c1.44,1.04,2.86,2.09,4.28,3.15l0,0c123.63,92.5,184.46,261.32,139.95,427.43
		c-15.95,59.54-43.81,112.6-80.04,157.04c22.06-34.98,39.4-73.97,50.73-116.24c44.07-164.46-15.13-331.6-136.31-424.67
		c-34.96,43.73-89.17,69.52-146.18,67.88c4.64,12.6,10.12,25.37,16.54,38.42c17.87,36.33,38.7,63.09,61.42,86.77
		c55.17,57.51,136,104.85,154.12,188.54c10.58,48.86-11.1,101.83-54.5,127.49c-8.81,5.21-18.31,9.03-28.31,11.28
		c-10.36,2.33-17.64,2.03-27.26,7.83C783.66,704.9,774.73,716.08,771,730c-7.65,28.54,9.39,58.05,37.93,65.7
		c5.87,1.57,11.78,2.1,17.54,1.7C838.27,796.57,842.35,794.23,851.72,788.28L851.72,788.28z M771.41,100.52
		c-0.51,1.91-1.33,3.66-2.39,5.21c-0.66-2.64-2.69-4.85-5.5-5.61c-4.11-1.1-8.36,1.35-9.46,5.46c-0.75,2.8,0.15,5.67,2.11,7.56
		c-1.88,0.14-3.81-0.02-5.72-0.53c-9.11-2.44-14.54-11.86-12.1-20.96c2.44-9.11,11.86-14.54,20.96-12.1
		C768.41,81.99,773.85,91.41,771.41,100.52L771.41,100.52z M793.65,106.48c-5.72,21.36-27.81,34.11-49.16,28.38
		c-21.36-5.72-34.11-27.81-28.38-49.16c5.72-21.36,27.81-34.11,49.16-28.39C786.62,63.03,799.37,85.12,793.65,106.48L793.65,106.48z
		 M821.39,193.62c49.77,58.84,54.22,127.39,27.67,202.58c-19.28-27.07-42.09-43.52-70.04-44.47
		C811.22,305.6,824.25,252.5,821.39,193.62L821.39,193.62z"/>
	<path class="st1" d="M560.46,850.84c97.56-50.14,159.55,9.41,241.9-35.57c-38.77-11.1-61.76-51.52-51.29-90.62
		c3.87-14.44,11.79-26.75,22.2-36.05c-70.42-19.44-64.65-104.43-27.7-153.6c-94.14,39.07-122.67,105.41-91.46,196.57
		C608.24,750.14,577.01,789.9,560.46,850.84L560.46,850.84z M997.61,181.89c33.1-6.88,67.58-8.11,107.28,12.03
		c26.45,13.41,43.86,28.51,58.37,46.25c28.43,34.75,43.19,82.3,76.19,111.46c-22.62-1.06-42.33,0.18-59.58,3.38
		c-15.31-30.36-40.71-55.51-73.07-70c19.08,23.2,31.12,51.84,33.98,82.2c-34.61,16.15-55.46,43.22-70.42,74.97
		c1-29.42-1.15-58.13-6.02-87.19c-2.06-12.29-4.57-24.49-7.8-36.92c-4.2-16.11-9.06-31.84-15.13-47.96
		C1029.8,239.18,1015.12,209.91,997.61,181.89L997.61,181.89z M753.41,393.91c59.53,75.15,61.34,142.16,23.36,203.55
		c49.35-8.33,81.51-33.37,96.47-75.1c-12.92-24.06-28.82-43.49-48.19-62.71C802.06,436.83,776.98,416.18,753.41,393.91
		L753.41,393.91z"/>
	<path class="st2" d="M485.91,361.02c-28.73,6.44-57.36,6.65-85.91,2.17c19.91,18.44,34.85,39.4,38.88,65.93
		C450.98,406.18,467.07,383.51,485.91,361.02L485.91,361.02z"/>
	<path class="st2" d="M621.98,0c-5.73,32.18-10.12,67.19-9,98.92c-25.16-48.06-78.53-69.75-126.35-76.53
		C529.74,7.86,575.39,0.09,621.98,0L621.98,0z"/>
	<path class="st2" d="M539.44,774.99c-8-66.41,4.86-112,39.74-168.58c54.37-88.2,98.93-172.54,86.62-281.99
		c77.59,74.3,48.66,163.37-5.46,238.5C606.58,637.56,555.11,671.89,539.44,774.99L539.44,774.99z"/>
	<path class="st2" d="M236.77,611.77c43.47,90.84,118.48,166.07,214.89,208.04c-39.61-29.62-55.31-50.52-70.64-82.99
		c-15.11-32-20.59-65.54-56.14-81.65c-13.74-6.23-29.35-9.78-45-14.46C264.29,636.06,249.36,629.09,236.77,611.77L236.77,611.77z"/>
	<path class="st2" d="M194.68,470.92c-1.43-14.18-2.17-28.55-2.17-43.1c0-30.53,3.24-60.31,9.39-89.05
		c2.54,35.8,11.85,69.77,26.65,100.65C212.74,446.15,201.45,456.65,194.68,470.92L194.68,470.92z"/>
	<path class="st3" d="M886.19,869.77c-86.72,16.24-270.25,32.61-366.43-91.55c-3.14-4.85-6.46-11.33-8.78-19.45
		c-6.47-41.09,3.02-86.16,24.88-135.24c43.34-97.32,88.52-177.38,108.11-284.4c10.18-55.59,9.77-108.73-9.66-154.45
		c-12.74-29.98-38.05-59.74-68.68-81.87c-60.05-43.38-156.37-54.51-208.57,8.32c-31.93,38.44-40.35,86.59-28.13,129.29
		c11.86,41.42,40.69,71.97,76.29,87.14c40.17,17.12,76.44,14.31,104.35-4.53c35.27-23.8,51.54-64.17,44.39-97.1
		c-6.31-29.06-32.05-61.33-76.65-53.3c28,10.49,36.48,35.35,29.42,54.15c-13.8,36.75-62.62,26.81-79.19-2.6
		c-10.48-18.59-10.91-38.15-4.38-55.47c18.26-48.46,73.45-62.92,118.26-41.65c24.16,11.46,44.47,31.8,53.18,55.99
		c26.93,74.77-19.34,154.01-62.25,212.42c-24.96,33.97-51.87,65.76-73.7,101.51c-74.46,121.9-61.71,271.21,62.05,340.9l0,0.01
		c0,0,0.06,0.03,0.17,0.09c14.34,8.06,30.16,15.05,47.51,20.81c-0.19-0.17-0.37-0.34-0.55-0.51c64.24,23.72,186.61,55.05,319.6,16.7
		C890.69,874.03,889.53,869.14,886.19,869.77z"/>
	<path class="st3" d="M239.01,261.68"/>
	<path class="st3" d="M411.93,453.73c-21.48-48.48-70.58-80.54-99.65-125.22c-2.06-3.17-4.07-6.38-6.01-9.64l0.06-0.03
		c-0.17-0.23-0.33-0.46-0.49-0.7c-5.27-8.9-10.06-18.14-14.12-27.75c-31.46-93.32,57.53-231.46,77.82-261.17
		c0.54-0.79-0.5-1.68-1.21-1.04c-160.1,145.28-128.46,319-128.46,319c3.74,35.32,15.86,59.17,33.17,79.05
		c27,31.02,70.12,50.31,91.74,84.96c7.28,11.67,11.22,24.89,7.87,39.27c-6.76,28.97-34.86,43.26-61.99,34.88
		c-10.12-3.13-18.62-9.39-24.77-19.58c-6.71-11.1-4.11-24,2.99-32.98c8.57-10.84,23.72-15.98,37.01-5.37
		c8.88,7.09,10.64,22.09,4.87,34.35c11-10.87,14.6-23.18,13.49-35.08c-3.13-33.6-36.03-53.33-66.68-53.04
		c-45.04,0.41-73.76,54.41-56.89,94.77c7.65,18.3,23.41,34.42,45.32,45.15c41.9,20.51,88.36,12.3,121.76-23.18
		C422.49,553.45,432.2,499.48,411.93,453.73z"/>
</g>
<path class="st4" d="M771.41,100.52c-0.51,1.91-1.33,3.66-2.39,5.21c-0.66-2.64-2.69-4.85-5.5-5.61c-4.11-1.1-8.36,1.35-9.46,5.46
	c-0.75,2.8,0.15,5.67,2.11,7.56c-1.88,0.14-3.81-0.02-5.72-0.53c-9.11-2.44-14.54-11.86-12.1-20.96
	c2.44-9.11,11.86-14.54,20.96-12.1C768.41,81.99,773.85,91.41,771.41,100.52L771.41,100.52z"/>
</svg>
